<?xml version="1.0" encoding="UTF-8"?>
<!DOCTYPE svg PUBLIC "-//W3C//DTD SVG 1.1//EN" "http://www.w3.org/Graphics/SVG/1.1/DTD/svg11.dtd">
<svg version="1.1" xmlns="http://www.w3.org/2000/svg" xmlns:xlink="http://www.w3.org/1999/xlink" x="0" y="0" width="24" height="24" viewBox="0, 0, 24, 24">
  <g id="Layer_1">
    <path d="M23.244,17.009 L0.75,17.009 C0.337,17.009 0,17.369 0,17.81 L0,21.231 C0,21.654 0.337,22 0.75,22 L23.244,22 C23.658,22 23.994,21.654 23.994,21.23 L23.994,17.81 C23.994,17.369 23.658,17.009 23.244,17.009 z M23.244,9.009 L0.75,9.009 C0.337,9.009 0,9.369 0,9.81 L0,13.231 C0,13.655 0.337,14 0.75,14 L23.244,14 C23.658,14 23.994,13.655 23.994,13.231 L23.994,9.81 C23.994,9.369 23.658,9.009 23.244,9.009 z M23.244,1.009 L0.75,1.009 C0.337,1.009 0,1.369 0,1.81 L0,5.23 C0,5.653 0.337,5.999 0.75,5.999 L23.244,5.999 C23.658,5.999 23.994,5.653 23.994,5.23 L23.994,1.81 C23.994,1.369 23.658,1.009 23.244,1.009 z" fill="#4A4A4A"/>
  </g>
</svg>
